<svg xmlns="http://www.w3.org/2000/svg" xmlns:xlink="http://www.w3.org/1999/xlink" version="1.1" width="256" height="256" viewBox="0 0 256 256" xml:space="preserve">

<defs>
</defs>
<g style="stroke: none; stroke-width: 0; stroke-dasharray: none; stroke-linecap: butt; stroke-linejoin: miter; stroke-miterlimit: 10; fill: none; fill-rule: nonzero; opacity: 1;" transform="translate(1.4065934065934016 1.4065934065934016) scale(2.81 2.81)" >
	<path d="M 89.994 0.935 c -0.005 -0.088 -0.022 -0.174 -0.05 -0.258 c -0.011 -0.032 -0.021 -0.063 -0.035 -0.094 c -0.049 -0.107 -0.11 -0.209 -0.196 -0.295 c -0.086 -0.086 -0.188 -0.147 -0.295 -0.196 c -0.032 -0.014 -0.063 -0.024 -0.096 -0.035 c -0.082 -0.028 -0.166 -0.044 -0.252 -0.049 C 89.038 0.005 89.008 -0.001 88.976 0 c -0.108 0.003 -0.217 0.019 -0.322 0.058 L 0.648 33.083 c -0.375 0.141 -0.629 0.491 -0.648 0.891 c -0.018 0.4 0.204 0.772 0.564 0.946 l 36.769 17.745 l 17.745 36.77 C 55.246 89.781 55.597 90 55.98 90 c 0.015 0 0.03 0 0.045 -0.001 c 0.4 -0.019 0.751 -0.273 0.892 -0.647 L 89.942 1.346 C 89.982 1.24 89.997 1.131 90 1.022 C 90.001 0.992 89.996 0.964 89.994 0.935 z M 85.032 3.553 L 37.879 50.706 L 3.54 34.135 L 85.032 3.553 z M 55.865 86.461 l -16.572 -34.34 L 86.446 4.968 L 55.865 86.461 z" style="stroke: none; stroke-width: 1; stroke-dasharray: none; stroke-linecap: butt; stroke-linejoin: miter; stroke-miterlimit: 10; fill: #fff; fill-rule: nonzero; opacity: 1;" transform=" matrix(1 0 0 1 0 0) " stroke-linecap="round" />
</g>
</svg>